#!OML:ASF F:\VICON\USERDATA\Patient Classification 1\PLAYGROUND\JustinFriday\JustinFriday.ASF
:FULLY-SPECIFIED
:DEGREES
1455
root 13.5499 23.3747 49.1886 -188.421 5.56665 -180.588
lowerback 30.4094 1.21637 -5.37049
upperback 7.65899 2.86062 7.22048
thorax -8.12108 2.313 9.51307
lowerneck -1.33249 -3.74877 -12.8421
upperneck 13.7314 -3.89438 2.63529
head 4.6977 -2.12735 2.74643
rclavicle 2.94201e-014 6.99722e-014
rhumerus 34.4454 31.9436 -51.4708
rradius 64.8456
rwrist 17.0924
rhand -25.5336 -24.0619
rfingers 7.12502
rthumb 0.996235 -54.0393
lclavicle 2.94201e-014 6.99722e-014
lhumerus 100.197 31.0953 63.0917
lradius 23.2989
lwrist -21.3471
lhand -11.934 0.630078
lfingers 7.12502
lthumb 14.1206 30.1303
rfemur -47.2875 -3.49692 24.1112
rtibia 92.6878
rfoot -35.446 -7.19087
rtoes 10.7772
lfemur -3.03884 4.12095 -22.1546
ltibia 23.4255
lfoot -1.54008 4.15247
ltoes 12.9771
1456
root 13.522 23.3101 49.1757 -188.356 6.22966 -180.528
lowerback 30.879 1.62085 -5.5173
upperback 7.34991 3.31359 7.48987
thorax -8.7802 2.54281 9.70956
lowerneck -1.30025 -3.83312 -12.8295
upperneck 13.4012 -4.01723 2.4718
head 4.59711 -2.19227 2.68589
rclavicle 5.32743e-014 1.36764e-013
rhumerus 33.3031 32.7827 -51.5048
rradius 64.2424
rwrist 15.5977
rhand -27.0338 -24.8296
rfingers 7.12502
rthumb -0.452765 -54.8088
lclavicle 5.32743e-014 1.36764e-013
lhumerus 99.9932 31.036 63.2634
lradius 23.2412
lwrist -21.8899
lhand -11.6477 1.39025
lfingers 7.12502
lthumb 14.3964 30.871
rfemur -47.607 -3.10182 24.219
rtibia 93.1918
rfoot -35.9996 -7.02614
rtoes 11.6718
lfemur -3.02355 4.15956 -22.204
ltibia 23.7871
lfoot -3.35032 4.58525
ltoes 9.45641
1457
root 13.4742 23.2594 49.159 -187.73 5.7432 -180.052
lowerback 30.6848 1.30493 -4.72257
upperback 7.00124 3.15894 7.74103
thorax -9.0525 2.46289 9.6074
lowerneck -1.55545 -3.86975 -12.7291
upperneck 13.1641 -4.05175 2.32367
head 4.56346 -2.21405 2.61673
rclavicle 4.29375e-014 1.39944e-013
rhumerus 32.1991 33.179 -51.67
rradius 63.7695
rwrist 15.6349
rhand -26.7936 -24.9004
rfingers 7.12502
rthumb -0.220779 -54.88
lclavicle 4.29375e-014 1.39944e-013
lhumerus 99.6432 31.0634 63.2967
lradius 23.6032
lwrist -22.3024
lhand -11.5277 2.10373
lfingers 7.12502
lthumb 14.5121 31.5762
rfemur -48.37 -3.88857 24.508
rtibia 93.6144
rfoot -36.7646 -6.91944
rtoes 11.8677
lfemur -3.59951 3.43646 -22.0331
ltibia 24.0126
lfoot -4.67606 4.61829
ltoes 9.13016
1458
root 13.4481 23.2096 49.1439 -187.735 6.47044 -180.111
lowerback 29.3186 1.42207 -4.76634
upperback 8.06597 3.45109 7.7975
thorax -7.37555 2.5902 9.63164
lowerneck -1.98369 -3.87533 -12.7356
upperneck 11.7881 -4.17548 2.51141
head 4.21875 -2.27219 2.66011
rclavicle -1.43125e-014 -2.8625e-014
rhumerus 32.7142 32.285 -51.452
rradius 63.154
rwrist 16.719
rhand -25.3111 -24.1339
rfingers 7.12502
rthumb 1.21111 -54.1102
lclavicle -1.43125e-014 -2.8625e-014
lhumerus 100.531 31.6553 63.8825
lradius 24.4607
lwrist -22.2544
lhand -12.2004 2.81668
lfingers 7.12502
lthumb 13.8638 32.3346
rfemur -48.4999 -3.35559 24.4536
rtibia 94.0191
rfoot -37.3811 -7.036
rtoes 11.5655
lfemur -3.47424 4.04675 -22.1055
ltibia 24.1998
lfoot -5.85719 4.50314
ltoes 18.5784
1459
root 13.4125 23.1631 49.1315 -188.14 6.75928 -180.576
lowerback 29.0367 1.65943 -5.36975
upperback 8.68708 3.72752 8.02957
thorax -6.68466 2.73979 10.1453
lowerneck -1.9616 -3.92309 -12.8486
upperneck 10.5207 -4.31226 2.37679
head 3.83595 -2.33706 2.62985
rclavicle 5.96354e-014 7.31528e-014
rhumerus 32.6893 31.9753 -51.1178
rradius 62.6156
rwrist 17.0498
rhand -24.5419 -24.1924
rfingers 7.12502
rthumb 1.95401 -54.1632
lclavicle 5.96354e-014 7.31528e-014
lhumerus 100.394 32.055 64.1614
lradius 25.694
lwrist -21.3534
lhand -12.9995 3.89936
lfingers 7.12502
lthumb 13.0936 33.4683
rfemur -48.2963 -3.37684 23.7345
rtibia 94.4948
rfoot -38.0615 -6.82241
rtoes 11.5111
lfemur -3.08412 4.06201 -22.7455
ltibia 24.5176
lfoot -7.17317 4.64061
ltoes 16.2018
1460
root 13.3803 23.1142 49.1194 -188.06 7.05218 -180.503
lowerback 29.0589 1.71536 -5.10643
upperback 8.69158 3.89126 8.11363
thorax -6.72118 2.82307 10.03
lowerneck -2.02358 -3.89625 -12.8317
upperneck 9.83812 -4.3181 2.34498
head 3.63552 -2.33389 2.61712
rclavicle 1.19271e-014 6.36111e-015
rhumerus 32.0474 32.3494 -51.3068
rradius 62.008
rwrist 16.4107
rhand -25.1987 -25.0297
rfingers 7.12502
rthumb 1.31967 -55.0053
lclavicle 1.19271e-014 6.36111e-015
lhumerus 99.447 32.1468 63.6349
lradius 27.2827
lwrist -20.2104
lhand -13.4318 5.13959
lfingers 7.12502
lthumb 12.677 34.7348
rfemur -48.5932 -3.3321 23.6885
rtibia 94.9386
rfoot -38.5961 -6.8164
rtoes 11.223
lfemur -3.10463 3.9911 -22.7971
ltibia 24.6913
lfoot -8.62654 4.86103
ltoes 11.0137
1461
root 13.3509 23.0631 49.106 -187.576 7.40512 -180.176
lowerback 29.0283 1.59459 -4.16611
upperback 8.36323 3.91245 7.92521
thorax -7.00542 2.81438 9.28423
lowerneck -2.09591 -3.82771 -12.755
upperneck 9.4253 -4.28247 2.53724
head 3.51839 -2.3069 2.66573
rclavicle -7.95139e-016 1.59028e-015
rhumerus 31.007 32.6804 -52.2414
rradius 61.2958
rwrist 16.6463
rhand -24.7949 -24.5299
rfingers 7.12502
rthumb 1.70963 -54.5028
lclavicle -7.95139e-016 1.59028e-015
lhumerus 97.975 32.0591 62.3898
lradius 29.253
lwrist -18.7537
lhand -14.0023 6.0271
lfingers 7.12502
lthumb 12.1269 35.6557
rfemur -49.3991 -3.21933 24.0021
rtibia 95.4206
rfoot -38.9207 -6.52294
rtoes 11.163
lfemur -3.52708 4.06816 -22.5454
ltibia 24.8295
lfoot -9.71936 4.99771
ltoes 7.83647
1462
root 13.3172 23.0461 49.099 -187.337 7.55267 -180.154
lowerback 29.5003 1.60979 -3.74977
upperback 7.91259 3.98531 7.8927
thorax -7.68541 2.84195 8.9643
lowerneck -2.18416 -3.79491 -12.5737
upperneck 9.19929 -4.22567 2.27689
head 3.45024 -2.27818 2.55888
rclavicle 3.73715e-014 3.18055e-014
rhumerus 29.6067 32.856 -53.2234
rradius 60.8041
rwrist 17.675
rhand -22.8492 -23.5972
rfingers 7.12502
rthumb 3.58873 -53.5467
lclavicle 3.73715e-014 3.18055e-014
lhumerus 95.9239 31.902 61.0888
lradius 31.6387
lwrist -16.8176
lhand -14.8151 6.8741
lfingers 7.12502
lthumb 11.3431 36.5473
rfemur -49.8934 -3.42473 23.8761
rtibia 95.7859
rfoot -39.064 -5.98467
rtoes 10.8099
lfemur -3.86505 4.20669 -22.6058
ltibia 25.2204
lfoot -10.7227 4.78985
ltoes 7.08158
